<svg width="159.99999999999997" height="400" xmlns="http://www.w3.org/2000/svg">
 <!-- Created with Method Draw - http://github.com/duopixel/Method-Draw/ -->

 <g>
  <title>Layer 1</title>
  <metadata transform="matrix(0.25000011920930376,0,0,0.25000011920930376,0,0) ">Created by potrace 1.15, written by Peter Selinger 2001-2017</metadata>
  <g id="svg_4" fill="#000000" transform="matrix(0.025000012293459585,0,0,-0.025000012293459585,0,50.00002384186075) ">
   <path fill="#ff7f00" id="svg_5" d="m2903.136719,-303.637695c-60,-20 -108,-39 -108,-43c0,-4 55,-26 123,-48l123,-41l116,42c64,24 117,47 117,52c2,10 -219,76 -249,75c-8,-1 -63,-17 -122,-37z"/>
   <path fill="#0000bf" id="svg_6" d="m2603.136719,-397.637695c-65,-22 -118,-43 -118,-48c0,-8 221,-100 243,-100c21,0 277,92 277,100c0,10 -238,90 -265,89c-11,0 -73,-19 -137,-41z"/>
   <path fill="#072dc4" id="svg_7" d="m3227.136719,-394.637695c-112,-38 -130,-46 -121,-56c3,-2 65,-27 139,-54l134,-50l118,46c65,25 118,51 118,57c0,6 -57,29 -128,50c-70,22 -131,41 -137,43c-5,2 -61,-14 -123,-36z"/>
   <path fill="#ff7f00" id="svg_8" d="m2907.136719,-502.637695c-68,-25 -121,-50 -120,-55c4,-10 251,-118 272,-118c23,-1 276,105 273,115c-4,11 -254,104 -282,104c-11,0 -75,-21 -143,-46z"/>
   <path fill="#ffff00" id="svg_9" d="m2268.136719,-508.637695c-118,-41 -154,-59 -136,-70c35,-21 220,-97 237,-97c34,1 301,104 297,115c-5,13 -229,95 -256,94c-11,0 -75,-19 -142,-42z"/>
   <path fill="#36c407" id="svg_10" d="m3561.136719,-508.637695c-60,-23 -111,-47 -113,-53c-2,-7 45,-29 114,-53c204,-73 184,-72 312,-16c61,27 110,53 108,59c-3,9 -281,107 -302,105c-5,0 -59,-19 -119,-42z"/>
   <path fill="#ff0000" id="svg_11" d="m2558.136719,-627.387069c-75,-28 -133,-56 -133,-63c0,-16 240,-125 277,-125c35,0 303,111 303,126c0,17 -243,114 -282,113c-18,-1 -93,-23 -165,-51z"/>
   <path fill="#ffff00" id="svg_12" d="m3239,-629.637695c-73,-29 -130,-58 -130,-65c0,-12 273,-129 305,-131c12,0 262,104 279,117c14,10 -41,36 -172,82c-82,28 -149,51 -150,51c-1,-1 -60,-25 -132,-54z"/>
   <path fill="#1138d6" id="svg_13" d="m2106.136719,-657.637695c1,-35 6,-115 13,-177l11,-115l105,-63c106,-63 124,-71 135,-54c7,12 -14,295 -26,341c-8,34 -15,39 -114,83c-58,26 -110,47 -115,47c-6,0 -10,-28 -9,-62z"/>
   <path fill="#ff0000" id="svg_14" d="m3880.136719,-651.637695c-55,-25 -103,-48 -107,-52c-9,-9 -34,-370 -26,-378c8,-7 214,102 225,119c9,14 31,228 32,305c1,35 -3,52 -11,51c-7,0 -58,-20 -113,-45z"/>
   <path fill="#ffff00" id="svg_15" d="m2908.136719,-773.637695c-99,-39 -143,-62 -143,-73c0,-17 280,-149 316,-149c32,0 299,125 302,141c1,10 -49,34 -156,77c-86,34 -162,62 -167,61c-6,0 -74,-26 -152,-57z"/>
   <path fill="#ff7f00" id="svg_16" d="m2399.136719,-739.637695c-8,-22 16,-349 27,-362c18,-22 251,-136 260,-127c5,5 6,87 1,193l-7,185l-115,56c-144,70 -158,75 -166,55z"/>
   <path fill="#ff0000" id="svg_17" d="m3579.136719,-796.637695l-122,-60l-6,-147c-4,-81 -9,-168 -12,-194c-5,-40 -3,-48 11,-48c9,0 70,29 135,66c137,75 123,49 140,257c14,176 14,187 -7,186c-10,0 -73,-27 -139,-60z"/>
   <path fill="#37c607" id="svg_18" d="m2735.136719,-1079.637695l0,-194l145,-82c83,-47 152,-80 160,-76c13,4 15,37 15,206l0,201l-146,70c-80,38 -152,69 -160,69c-12,0 -14,-32 -14,-194z"/>
   <path fill="#ff7f00" id="svg_19" d="m3243.136719,-957.637695c-107,-52 -148,-76 -152,-92c-3,-11 -6,-105 -6,-208c0,-177 1,-188 19,-188c10,0 80,34 155,76c99,55 137,82 140,97c3,12 8,104 11,205c5,147 4,182 -7,181c-7,0 -79,-32 -160,-71z"/>
   <path fill="#ffff00" id="svg_20" d="m2142.136719,-1013.637695c-5,-7 19,-321 25,-326c21,-19 198,-126 208,-126c10,0 12,32 6,162c-4,89 -9,165 -12,169c-6,11 -203,129 -214,129c-5,0 -11,-3 -13,-8z"/>
   <path fill="#ff7f00" id="svg_21" d="m3842.136719,-1069.637695c-54,-29 -102,-57 -107,-62c-12,-13 -40,-337 -31,-347c7,-7 184,95 211,119c6,7 39,261 40,307c0,20 -3,37 -7,37c-5,-1 -52,-25 -106,-54z"/>
   <path fill="#ff0000" id="svg_22" d="m2419.136719,-1322.637695c6,-138 10,-171 24,-184c33,-31 225,-140 238,-135c11,4 14,35 14,138c0,215 9,196 -139,278c-70,39 -131,70 -136,70c-4,0 -5,-75 -1,-167z"/>
   <path fill="#35bf07" id="svg_23" d="m3543.136719,-1246.637695l-116,-70l-6,-137c-4,-75 -9,-154 -11,-174c-4,-31 -2,-38 11,-38c13,0 121,64 236,141c6,4 37,279 38,342c0,19 -45,0 -152,-64z"/>
   <path fill="#1037d3" id="svg_24" d="m2732.886092,-1347.888322c-3,-7 -2,-87 1,-177l6,-164l135,-83c74,-46 143,-84 153,-84c16,0 17,15 17,180l0,180l-37,23c-60,37 -250,137 -261,137c-5,0 -12,-6 -14,-12z"/>
   <path fill="#12bc09" id="svg_25" d="m3220.136719,-1428.637695l-130,-72l-6,-90c-4,-49 -7,-132 -8,-182c-1,-116 -1,-116 146,-27c162,100 150,80 158,277c7,159 7,167 -11,167c-11,0 -77,-33 -149,-73z"/>
   <path fill="#39c609" id="svg_26" d="m2166.136719,-1422.637695c1,-16 6,-80 13,-143l11,-115l104,-77c58,-43 109,-78 114,-78c13,0 -2,269 -17,299c-12,27 -180,139 -208,140c-13,1 -18,-6 -17,-26z"/>
   <path fill="#1037d1" id="svg_27" d="m3800.136719,-1460.637695c-115,-75 -110,-63 -121,-252c-5,-89 -4,-123 5,-123c11,0 197,125 205,138c3,4 9,55 16,112c6,58 13,124 16,148c5,32 3,42 -7,41c-8,0 -59,-29 -114,-64z"/>
   <path fill="#36c107" id="svg_28" d="m2440.136719,-1697.637695c4,-79 8,-148 10,-154c4,-13 230,-174 245,-174c12,0 14,288 2,307c-9,15 -242,163 -255,163c-5,0 -5,-64 -2,-142z"/>
   <path fill="#ff7f00" id="svg_29" d="m3524.136719,-1641.637695l-117,-76l-6,-102c-4,-55 -9,-127 -12,-158c-4,-42 -3,-58 6,-58c14,0 240,158 240,168c0,4 7,68 15,142c18,165 18,160 3,160c-7,0 -65,-35 -129,-76z"/>
   <path fill="#ff7f00" id="svg_30" d="m2745.136719,-1912.637695l0,-158l127,-80c70,-44 136,-80 148,-80c19,0 20,6 20,159l0,160l-134,78c-73,43 -139,78 -147,78c-11,0 -14,-30 -14,-157z"/>
   <path fill="#0c32cc" id="svg_31" d="m3220.136719,-1836.637695c-66,-45 -123,-87 -127,-93c-12,-17 -10,-316 2,-316c6,0 66,38 134,85c81,56 126,93 129,107c3,13 7,84 8,158c3,114 1,135 -12,138c-8,1 -69,-34 -134,-79z"/>
  </g>
  <g id="svg_32"/>
 </g>
</svg>