<svg width="24" height="24" xmlns="http://www.w3.org/2000/svg">

 <g>
  <title>background</title>
  <rect fill="none" id="canvas_background" height="402" width="582" y="-1" x="-1"/>
 </g>
 <g>
  <title>Layer 1</title>
  <path id="svg_1" fill="none" d="m0.61644,0.0411l24,0l0,24l-24,0l0,-24z"/>
  <path id="svg_2" d="m13,4.07l0,-3.07l-4.55,4.55l4.55,4.45l0,-3.91c2.84,0.48 5,2.94 5,5.91s-2.16,5.43 -5,5.91l0,2.02c3.95,-0.49 7,-3.85 7,-7.93s-3.05,-7.44 -7,-7.93z"/>
  <path d="m1.828773,4.109593c0,0.041096 0.05693,0.237194 0.246575,0.575342c0.404552,0.721339 1.0332,1.928997 1.315068,2.58904c0.209816,0.491321 0.366812,0.94697 0.534246,1.232876c0.121095,0.206779 0.151748,0.418602 0.205479,0.49315c0.033982,0.047148 0.062443,0.12488 0.082191,0.246575c0.020817,0.128279 0.066195,0.454185 0.123288,0.821918c0.032148,0.207068 0.123288,0.493151 0.123288,0.698629c0,0.287671 0,0.369864 0,0.452055c0,0 0,0.041096 0,0.041096l0,0.041096l0,0l0,0" id="svg_4" fill-opacity="null" stroke-opacity="null" stroke-width="null" stroke="null" fill="none"/>
  <path stroke="null" d="m4.989942,8.054796c0,0.106084 -0.024162,0.390455 0,0.636508c0.031823,0.324071 0.093903,0.509633 0.158164,0.636508c0.044082,0.087035 0.094898,0.141446 0.158164,0.212169c0.063265,0.070723 0.162177,0.233993 0.347961,0.495062c0.139251,0.195679 0.284695,0.353615 0.442859,0.530423c0.158164,0.176808 0.299636,0.334956 0.442859,0.495062c0.143224,0.160106 0.152096,0.252381 0.22143,0.353615c0.204414,0.298467 0.588738,0.724587 1.138781,1.485186c0.525027,0.726007 0.956613,1.336011 1.328578,1.803439c0.193839,0.243586 0.362131,0.510815 0.56939,0.777955c0.058622,0.075559 0.094899,0.106084 0.126532,0.141446l0,0.035361" id="svg_5" fill-opacity="null" stroke-opacity="null" stroke-width="null" fill="none"/>
  <polyline stroke-linecap="round" id="svg_10" points="7.335618875781087,22.10958344468238 7.335618875781087,22.10958344468238 " stroke-opacity="null" stroke-width="null" stroke="null" fill="none"/>
 </g>
</svg>